HIERARCHY
ROOT Hips
{
	OFFSET 0.000000 0.000000 0.000000
	CHANNELS 6 Xposition Yposition Zposition Zrotation Yrotation Xrotation 
	JOINT LHipJoint
	{
		OFFSET 0.000000 0.000000 0.000000
		CHANNELS 3 Zrotation Yrotation Xrotation
		JOINT LeftUpLeg
		{
			OFFSET 1.363060 -1.794630 0.839290
			CHANNELS 3 Zrotation Yrotation Xrotation
			JOINT LeftLeg
			{
				OFFSET 2.448110 -6.726130 0.000000
				CHANNELS 3 Zrotation Yrotation Xrotation
				JOINT LeftFoot
				{
					OFFSET 2.562200 -7.039590 0.000000
					CHANNELS 3 Zrotation Yrotation Xrotation
					JOINT LeftToeBase
					{
						OFFSET 0.157640 -0.433110 2.322550
						CHANNELS 3 Zrotation Yrotation Xrotation
						End Site
						{
							OFFSET 0.000000 0.000000 0.000000
						}
					}
				}
			}
		}
	}
	JOINT RHipJoint
	{
		OFFSET 0.000000 0.000000 0.000000
		CHANNELS 3 Zrotation Yrotation Xrotation
		JOINT RightUpLeg
		{
			OFFSET -1.305520 -1.794630 0.839290
			CHANNELS 3 Zrotation Yrotation Xrotation
			JOINT RightLeg
			{
				OFFSET -2.542530 -6.985550 0.000000
				CHANNELS 3 Zrotation Yrotation Xrotation
				JOINT RightFoot
				{
					OFFSET -2.568260 -7.056230 0.000000
					CHANNELS 3 Zrotation Yrotation Xrotation
					JOINT RightToeBase
					{
						OFFSET -0.164730 -0.452590 2.363150
						CHANNELS 3 Zrotation Yrotation Xrotation
						End Site
						{
							OFFSET 0.000000 0.000000 0.000000
						}
					}
				}
			}
		}
	}
	JOINT LowerBack
	{
		OFFSET 0.000000 0.000000 0.000000
		CHANNELS 3 Zrotation Yrotation Xrotation
		JOINT Spine
		{
			OFFSET 0.028270 2.035590 -0.193380
			CHANNELS 3 Zrotation Yrotation Xrotation
			JOINT Spine1
			{
				OFFSET 0.056720 2.048850 -0.042750
				CHANNELS 3 Zrotation Yrotation Xrotation
				JOINT Neck
				{
					OFFSET 0.000000 0.000000 0.000000
					CHANNELS 3 Zrotation Yrotation Xrotation
					JOINT Neck1
					{
						OFFSET -0.054170 1.746240 0.172020
						CHANNELS 3 Zrotation Yrotation Xrotation
						JOINT Head
						{
							OFFSET 0.104070 1.761360 -0.123970
							CHANNELS 3 Zrotation Yrotation Xrotation
							End Site
							{
								OFFSET 0.000000 0.000000 0.000000
							}
						}
					}
				}
				JOINT LeftShoulder
				{
					OFFSET 0.000000 0.000000 0.000000
					CHANNELS 3 Zrotation Yrotation Xrotation
					JOINT LeftArm
					{
						OFFSET 3.362410 1.200890 -0.311210
						CHANNELS 3 Zrotation Yrotation Xrotation
						JOINT LeftForeArm
						{
							OFFSET 4.983000 -0.000000 -0.000000
							CHANNELS 3 Zrotation Yrotation Xrotation
							JOINT LeftHand
							{
								OFFSET 3.483560 -0.000000 -0.000000
								CHANNELS 3 Zrotation Yrotation Xrotation
								JOINT LeftFingerBase
								{
									OFFSET 0.000000 0.000000 0.000000
									CHANNELS 3 Zrotation Yrotation Xrotation
									JOINT LeftHandIndex1
									{
										OFFSET 0.715260 -0.000000 -0.000000
										CHANNELS 3 Zrotation Yrotation Xrotation
										End Site
										{
											OFFSET 0.000000 0.000000 0.000000
										}
									}
								}
								JOINT LThumb
								{
									OFFSET 0.000000 0.000000 0.000000
									CHANNELS 3 Zrotation Yrotation Xrotation
									End Site
									{
										OFFSET 0.000000 0.000000 0.000000
									}
								}
							}
						}
					}
				}
				JOINT RightShoulder
				{
					OFFSET 0.000000 0.000000 0.000000
					CHANNELS 3 Zrotation Yrotation Xrotation
					JOINT RightArm
					{
						OFFSET -3.136600 1.374050 -0.404650
						CHANNELS 3 Zrotation Yrotation Xrotation
						JOINT RightForeArm
						{
							OFFSET -5.241900 -0.000000 -0.000000
							CHANNELS 3 Zrotation Yrotation Xrotation
							JOINT RightHand
							{
								OFFSET -3.444170 -0.000000 -0.000000
								CHANNELS 3 Zrotation Yrotation Xrotation
								JOINT RightFingerBase
								{
									OFFSET 0.000000 0.000000 0.000000
									CHANNELS 3 Zrotation Yrotation Xrotation
									JOINT RightHandIndex1
									{
										OFFSET -0.622530 -0.000000 -0.000000
										CHANNELS 3 Zrotation Yrotation Xrotation
										End Site
										{
											OFFSET 0.000000 0.000000 0.000000
										}
									}
								}
								JOINT RThumb
								{
									OFFSET 0.000000 0.000000 0.000000
									CHANNELS 3 Zrotation Yrotation Xrotation
									End Site
									{
										OFFSET 0.000000 0.000000 0.000000
									}
								}
							}
						}
					}
				}
			}
		}
	}
}
MOTION
Frames: 11
Frame Time: 0.008333
-2.566015 13.803557 -0.526187 165.808400 66.737863 -176.927740 3.574779 -2.948389 -5.390534 -8.523519 4.278319 -72.794149 16.009708 20.065222 79.235716 1.817590 -15.889438 2.066492 0.015800 -0.810800 -2.228200 -1.743860 2.699729 -2.955973 0.879863 -23.250627 -56.915142 -22.554750 -18.174726 99.405997 -2.368931 -2.596026 -32.675975 -2.141800 9.155400 -26.282600 -9.518471 9.002191 53.958950 -1.586762 9.156573 2.566862 -1.617574 5.790375 -5.713065 -7.872415 -7.370943 -24.934873 5.571614 -6.506219 6.008450 1.017400 -3.036500 12.329800 -9.453059 -2.912597 -0.083468 -49.067835 -18.564411 52.917983 52.785992 -53.148829 -28.968385 -0.071455 -0.050265 -33.211756 30.713519 -12.906316 -7.575800 -7.125000 0.000000 0.000000 2.388900 15.068900 -1.687200 11.234861 6.831650 -1.209621 41.289983 57.366586 48.997943 -41.240488 39.179932 -15.647785 2.139285 2.272583 -32.681059 -13.625367 -37.342067 10.297200 7.125000 0.000000 0.000000 24.401600 -67.282800 -13.406800 
-2.647217 13.779080 -0.543520 165.242392 68.000828 -178.637100 3.581034 -2.981441 -5.407948 -8.336905 4.829872 -71.626198 16.010746 20.020836 79.189157 1.814065 -15.147028 1.677034 0.020700 -0.929700 -2.555400 -1.737119 2.675964 -2.958065 0.307096 -22.890374 -56.401357 -22.518169 -18.207639 99.298557 -2.350686 -2.189046 -32.223734 -2.047400 8.964000 -25.682900 -9.126246 8.840300 54.546202 -1.601537 9.136212 2.645109 -1.854842 5.820961 -5.699458 -7.730713 -7.330115 -24.657460 5.540936 -6.545013 5.963560 0.981700 -3.046800 12.271800 -9.457458 -3.021371 0.013740 -48.963681 -18.454481 53.076355 52.109192 -52.938531 -28.437447 -0.064962 -0.045677 -33.256688 30.681269 -13.463273 -7.881400 -7.125000 0.000000 0.000000 2.301800 14.437000 -1.656600 11.240388 6.951338 -1.566172 40.546023 56.246200 49.144157 -41.557869 40.025115 -16.016186 2.010534 2.286224 -34.057499 -13.809548 -37.683782 10.445800 7.125000 0.000000 0.000000 24.742900 -67.624600 -13.794000 
-2.527147 13.637895 -0.928102 164.473430 69.560167 176.090350 3.566104 -3.171588 -5.508944 -7.936126 6.306925 -66.882612 16.117215 19.973665 79.402569 1.853468 -14.714402 0.957267 0.038900 -1.272300 -3.498300 -1.848051 2.700796 -3.246995 -1.690976 -22.866648 -51.576493 -22.478696 -18.248918 99.216476 -2.474415 -0.888303 -31.965696 -1.993400 8.852400 -25.334600 -6.938141 7.076140 54.850106 -1.779665 8.602352 3.868914 -2.784233 5.736655 -2.867681 -8.351201 -7.101577 -24.800641 5.401896 -5.987861 6.291643 1.198000 -2.862700 12.246300 -9.590101 -2.775816 0.103385 -49.621747 -17.866831 52.433363 51.255583 -52.811113 -27.903132 -0.075097 -0.064506 -33.021037 30.568119 -13.552915 -7.894500 -7.125000 0.000000 0.000000 2.229800 14.365900 -1.608100 11.327080 6.580008 -1.345331 41.121018 56.187810 50.913900 -42.291394 40.810570 -16.489800 1.937271 2.247995 -34.709070 -14.176571 -38.050761 10.716200 7.125000 0.000000 0.000000 24.851600 -68.008100 -14.071300 
-1.987094 13.672141 -0.494883 163.221571 72.089638 -167.446714 3.546348 -2.412066 -5.477174 -9.122171 4.829196 -84.587388 15.754043 19.677224 78.337746 1.653095 -12.573898 0.944854 0.057900 -1.552600 -4.270700 -1.817853 2.616689 -2.428760 4.137636 -17.306801 -72.831258 -22.303331 -18.614689 98.393717 -1.985488 -3.814774 -31.102845 -1.871000 8.592100 -24.527600 -17.738125 10.093156 34.283892 -0.676538 9.713881 2.818895 6.762743 4.859884 -1.603610 -9.803041 -6.982423 -25.116836 5.836161 -5.028785 6.217812 1.480500 -2.519900 12.213400 -9.236567 -2.696844 -0.098060 -50.191884 -17.128528 50.917846 50.572423 -52.577611 -27.408929 -0.091423 -0.004194 -32.370830 30.285073 -13.225842 -7.657700 -7.125000 0.000000 0.000000 2.052500 14.702300 -1.465300 11.452169 6.342489 -1.041782 42.732511 57.095035 53.606073 -43.142074 41.018668 -16.902710 1.892750 2.133831 -34.769267 -14.883057 -38.056509 11.098800 7.125000 0.000000 0.000000 24.037700 -68.128800 -13.654400 
-1.940977 13.575707 -0.567996 161.739031 74.537786 -167.086985 3.577824 -2.359184 -5.519379 -9.416219 6.028470 -86.643546 15.917711 19.485234 78.716860 1.610399 -11.724902 0.304009 0.093600 -1.973200 -5.431700 -1.837535 2.542795 -2.282754 3.669981 -15.454810 -75.580569 -22.299123 -18.752111 98.328561 -1.997629 -3.063529 -30.463772 -1.784000 8.400900 -23.938600 -18.337576 10.048626 30.758816 -0.850244 9.941317 2.746376 6.912685 4.866439 -0.575238 -9.774872 -6.852326 -24.948027 5.707005 -4.932830 6.279039 1.430400 -2.493900 12.136800 -9.257136 -2.649007 -0.138766 -50.134900 -16.893646 51.180962 50.098778 -52.457406 -27.041316 -0.110543 -0.012993 -32.397949 30.499837 -13.045137 -7.627400 -7.125000 0.000000 0.000000 2.231500 14.873500 -1.585200 11.447820 6.172820 -0.909508 43.060267 56.613494 53.443109 -43.362308 41.405461 -17.103241 1.902224 2.040675 -34.213433 -15.393434 -37.609588 11.278600 7.125000 0.000000 0.000000 22.824000 -67.821900 -12.779300 
-1.982051 13.545768 -0.722417 160.735156 76.855879 -169.159103 3.646961 -2.388088 -5.603021 -9.328345 7.682090 -85.509963 16.037851 19.341297 78.953828 1.587174 -10.995436 -0.464077 0.174300 -2.689100 -7.414200 -1.925867 2.469546 -2.253110 3.036787 -13.870084 -74.845951 -22.226178 -18.946549 98.074444 -2.086342 -2.132688 -30.218009 -1.747700 8.319600 -23.689000 -16.936252 9.400192 30.377566 -0.978175 9.622516 3.034810 6.171527 4.665961 0.503832 -10.793390 -6.576512 -25.266318 5.702244 -4.070771 6.590794 1.830600 -2.197400 12.275400 -9.325116 -2.475536 -0.145336 -50.961050 -16.283984 50.259198 49.435669 -52.291869 -26.649545 -0.134697 -0.012060 -32.396150 30.705433 -13.063126 -7.713000 -7.125000 0.000000 0.000000 2.381500 14.805400 -1.695400 11.405010 6.019488 -0.746267 43.499360 56.890445 54.934302 -43.973736 41.717694 -17.406367 1.891899 2.028617 -33.632210 -14.773342 -37.878271 10.935900 7.125000 0.000000 0.000000 23.983500 -67.902900 -13.500900 
-2.054219 13.581800 -0.789543 159.306387 79.358909 -173.641643 3.757612 -2.450984 -5.691214 -9.351894 10.096256 -82.269993 16.243683 19.196821 79.411246 1.627291 -10.754404 -1.538517 0.279300 -3.399400 -9.392800 -2.061620 2.387934 -2.264993 2.266963 -12.097600 -71.815426 -22.093158 -19.212006 97.651612 -2.138200 -1.434158 -29.964985 -1.674700 8.152800 -23.179100 -15.693042 9.760690 32.111514 -1.209281 10.302753 3.498697 4.652817 5.097817 0.953174 -10.210712 -6.300307 -25.291889 5.338156 -4.002939 6.664544 1.599600 -2.169900 12.242700 -9.380984 -2.485227 -0.115073 -50.603879 -16.321096 50.445292 49.129034 -52.187088 -26.419130 -0.143662 -0.040870 -32.426573 30.669762 -12.808818 -7.549500 -7.125000 0.000000 0.000000 2.402700 15.127000 -1.694000 11.476106 5.903800 -0.654737 43.587538 56.525390 54.408955 -44.270463 42.101691 -17.744508 1.838411 2.091736 -34.520687 -14.251471 -38.669212 10.787300 7.125000 0.000000 0.000000 25.747300 -68.472800 -14.871100 
-2.102962 13.568143 -0.807401 156.512806 81.748028 -179.555044 3.891397 -2.499688 -5.754493 -9.107147 12.499476 -79.079277 16.524758 19.048798 80.087809 1.681144 -10.687862 -2.467986 0.343300 -3.764800 -10.416000 -2.151652 2.327339 -2.279464 1.379641 -10.563405 -68.890528 -22.057350 -19.425297 97.521905 -2.209905 -0.395524 -29.594516 -1.547100 7.851100 -22.262700 -15.172378 10.278309 34.049394 -1.289593 11.019012 3.902270 3.860592 5.496426 1.136229 -9.844883 -5.968912 -25.213741 4.943009 -3.768558 6.789943 1.391500 -2.095500 12.222200 -9.396014 -2.494468 -0.109487 -50.542378 -16.154161 50.447529 48.676528 -52.028653 -26.088538 -0.143865 -0.049193 -32.276049 30.602338 -12.895519 -7.575100 -7.125000 0.000000 0.000000 2.351800 15.047200 -1.662000 11.582147 5.766643 -0.495249 43.884913 56.291837 54.108029 -44.506574 42.375126 -18.029878 1.780659 2.156659 -33.868258 -12.023857 -39.846489 9.573300 7.125000 0.000000 0.000000 30.367600 -68.912200 -18.005300 
-2.136787 13.552596 -0.795426 152.671681 83.921327 174.228713 4.024696 -2.540421 -5.804119 -8.638413 14.637261 -76.571969 16.781997 18.887943 80.699556 1.734094 -10.692657 -3.223489 0.373300 -3.924100 -10.863200 -2.241479 2.260210 -2.273984 0.828739 -8.984579 -66.667307 -22.023709 -19.640385 97.388583 -2.299093 0.723418 -29.308785 -1.420300 7.536700 -21.315600 -15.037611 10.726846 35.382238 -1.268751 11.633835 4.222463 3.619739 5.775856 1.327774 -9.744114 -5.681719 -25.384828 4.614598 -3.410640 7.039625 1.268900 -1.979800 12.337900 -9.386353 -2.506304 -0.113739 -50.689072 -16.129011 50.182296 47.807451 -51.690416 -25.435757 -0.147781 -0.042551 -32.089091 30.512634 -13.138109 -7.690600 -7.125000 0.000000 0.000000 2.264100 14.773900 -1.613200 11.679213 5.663452 -0.373619 44.170274 56.050911 54.608943 -44.787399 42.625555 -18.225121 1.793139 2.110149 -34.418782 -13.381344 -39.707699 10.429400 7.125000 0.000000 0.000000 28.436500 -69.128400 -16.926100 
-2.162314 13.543142 -0.766222 145.834839 85.915768 165.807205 4.178080 -2.613667 -5.870193 -8.202705 16.616528 -74.823358 17.017481 18.695198 81.249609 1.786827 -10.735433 -3.907275 0.383400 -3.976500 -11.010500 -2.308594 2.139988 -2.213747 0.494095 -7.273653 -65.282630 -21.993870 -19.882831 97.260688 -2.337600 1.492347 -28.969033 -1.358400 7.377600 -20.838900 -15.188530 11.115882 36.101089 -1.216828 12.162182 4.409803 3.657577 5.956115 1.651111 -9.727379 -5.399781 -25.800046 4.393562 -2.996139 7.253026 1.216100 -1.834600 12.474100 -9.374728 -2.463003 -0.199302 -50.829150 -16.155141 49.795424 46.994833 -51.348102 -24.819031 -0.160720 -0.048715 -31.909782 30.212959 -12.846160 -7.440700 -7.125000 0.000000 0.000000 2.100400 15.147800 -1.479600 11.765981 5.444684 0.013664 45.133264 56.200097 55.198113 -45.042451 42.711131 -18.393581 1.833933 2.061166 -34.115095 -14.062655 -39.917698 10.919700 7.125000 0.000000 0.000000 27.858400 -69.456800 -16.763700 
-2.178702 13.536734 -0.726304 129.199295 87.370621 148.118273 4.277772 -2.937833 -6.061186 -7.968620 18.525421 -73.482841 17.205182 18.434185 81.657050 1.833516 -10.758198 -4.518392 0.384200 -3.980400 -11.021400 -2.426109 1.782503 -2.063703 0.130068 -5.576809 -64.505547 -21.959257 -20.189415 97.113343 -2.368243 2.228898 -28.604110 -1.348800 7.352500 -20.764000 -15.515890 11.370919 36.407984 -1.150798 12.602772 4.567164 3.833978 6.056187 1.780774 -9.758544 -5.028702 -25.995856 4.129164 -2.447428 7.457622 1.162900 -1.641200 12.575700 -9.346420 -2.501022 -0.200627 -51.128090 -15.802703 49.357277 46.428146 -51.127297 -24.417921 -0.157224 -0.054666 -31.568030 29.721268 -12.712316 -7.218200 -7.125000 0.000000 0.000000 1.779200 15.377700 -1.244300 11.833525 5.318403 0.080232 45.362087 56.346369 55.510119 -45.130120 42.658659 -18.347195 1.933468 1.906005 -34.370377 -17.490959 -38.413942 12.785200 7.125000 0.000000 0.000000 21.141200 -68.979700 -12.351000 
